<svg width="957" height="812" viewBox="0 0 957 812" fill="none" xmlns="http://www.w3.org/2000/svg">
<g opacity="0.3">
<g opacity="0.3">
<path opacity="0.3" d="M951.7 3.7001V808H3.79996V3.7001H951.7ZM954.8 0.600098H0.699951V811.1H954.8V0.600098Z" fill="#C4ECFE"/>
</g>
<g opacity="0.3">
<g opacity="0.3">
<g opacity="0.3">
<path opacity="0.3" d="M234.4 0.600098H231.5V811.1H234.4V0.600098Z" fill="#C4ECFE"/>
</g>
<g opacity="0.3">
<path opacity="0.3" d="M355.8 0.600098H352.9V811.1H355.8V0.600098Z" fill="#C4ECFE"/>
</g>
<g opacity="0.3">
<path opacity="0.3" d="M234.4 0.600098H231.5V811.1H234.4V0.600098Z" fill="#C4ECFE"/>
</g>
<g opacity="0.3">
<path opacity="0.3" d="M113 0.600098H110.1V811.1H113V0.600098Z" fill="#C4ECFE"/>
</g>
<g opacity="0.3">
<path opacity="0.3" d="M477.2 0.600098H474.3V811.1H477.2V0.600098Z" fill="#C4ECFE"/>
</g>
<g opacity="0.3">
<path opacity="0.3" d="M598.6 0.600098H595.7V811.1H598.6V0.600098Z" fill="#C4ECFE"/>
</g>
<g opacity="0.3">
<path opacity="0.3" d="M718.5 0.600098H715.6V811.1H718.5V0.600098Z" fill="#C4ECFE"/>
</g>
<g opacity="0.3">
<path opacity="0.3" d="M838.4 0.600098H835.5V811.1H838.4V0.600098Z" fill="#C4ECFE"/>
</g>
</g>
</g>
</g>
<path d="M64.9 380.1C67.1644 380.1 69 378.264 69 376C69 373.736 67.1644 371.9 64.9 371.9C62.6357 371.9 60.8 373.736 60.8 376C60.8 378.264 62.6357 380.1 64.9 380.1Z" fill="#BFD9FF"/>
<path d="M501.4 654.6C503.664 654.6 505.5 652.764 505.5 650.5C505.5 648.236 503.664 646.4 501.4 646.4C499.136 646.4 497.3 648.236 497.3 650.5C497.3 652.764 499.136 654.6 501.4 654.6Z" fill="#BFD9FF"/>
<path d="M821.4 28.7C823.664 28.7 825.5 26.8644 825.5 24.6C825.5 22.3356 823.664 20.5 821.4 20.5C819.136 20.5 817.3 22.3356 817.3 24.6C817.3 26.8644 819.136 28.7 821.4 28.7Z" fill="#BFD9FF"/>
<path d="M653.3 155.9C655.564 155.9 657.4 154.064 657.4 151.8C657.4 149.536 655.564 147.7 653.3 147.7C651.036 147.7 649.2 149.536 649.2 151.8C649.2 154.064 651.036 155.9 653.3 155.9Z" fill="#BFD9FF"/>
<path d="M69 88.3999C71.2644 88.3999 73.1 86.5643 73.1 84.3C73.1 82.0356 71.2644 80.2 69 80.2C66.7357 80.2 64.9 82.0356 64.9 84.3C64.9 86.5643 66.7357 88.3999 69 88.3999Z" fill="#B096FF"/>
<path d="M868.7 404.6C870.799 404.6 872.5 402.899 872.5 400.8C872.5 398.701 870.799 397 868.7 397C866.601 397 864.9 398.701 864.9 400.8C864.9 402.899 866.601 404.6 868.7 404.6Z" fill="#C9B7FF"/>
<path d="M198.9 514.4C200.999 514.4 202.7 512.699 202.7 510.6C202.7 508.501 200.999 506.8 198.9 506.8C196.801 506.8 195.1 508.501 195.1 510.6C195.1 512.699 196.801 514.4 198.9 514.4Z" fill="#BFD9FF"/>
<path d="M494.6 811.1C385.4 811.1 335.5 650.9 206.8 666.5C168.2 671.2 125.1 592 107.5 562.2C78.2 512.6 0.699951 532.7 0.699951 589.9V811.2H494.6V811.1Z" fill="url(#paint0_linear)"/>
<path d="M747.1 761.8H416.8C392.5 761.8 375.1 738.3 382.3 715L440.8 526.4L473.3 421.5C481.4 395.4 473.3 367.2 452.9 349C438 335.6 425.1 319.9 415 302.5C398.3 274 388.8 240.7 388.8 205.3C388.8 99.6999 473.6 13.9 578.8 12.2C686 10.5 773.5 95.2 775.1 202.4C776 260.8 750.9 313.4 710.6 349.4C690.4 367.5 682.5 395.7 690.6 421.7L781.6 715.2C788.7 738.2 771.4 761.8 747.1 761.8Z" fill="#2B2B2B"/>
<path d="M262.7 386.5L253.2 407.4C246.8 421.4 230.3 427.5 216.4 421.1C203.8 415.3 197.5 401.3 201.2 388.3L205.3 373.5" fill="#FDC068"/>
<path d="M205.2 373.6L238.4 254.9C240.6 247 245.6 240.7 252 236.8L254.4 235.4L380.2 158.1C398.3 147 422 152.6 433.2 170.7C444.3 188.8 438.7 212.5 420.6 223.7L294.8 301L310.8 281.4L262.8 386.6" fill="url(#paint1_linear)"/>
<path d="M692.3 248.6C687.2 224.3 663.3 208.7 639 213.8L590.2 224.1C588.4 224.2 586.7 224.5 584.9 224.8C582.9 225.2 581 225.7 579.2 226.4L289 287.5L288.7 286C273.3 210.2 199 161 123.2 176.5C86.5 184 54.8 205.3 34.2 236.6C13.5 267.9 6.19999 305.3 13.7 342.1L32.4 433.8C39.9 470.5 61.2 502.2 92.5 522.8C115.7 538.2 142.4 546.1 169.7 546.1C179.1 546.1 188.6 545.2 198 543.2C234.7 535.7 266.4 514.4 287 483.1C307.7 451.8 315 414.4 307.5 377.6L307.1 375.5L559.1 322.4L566.2 357.2C570.5 378.5 589.3 393.2 610.2 393.2C613.2 393.2 616.2 392.9 619.2 392.3C643.6 387.3 659.3 363.6 654.3 339.2L647.1 303.8L657.7 301.6C681.9 296.7 697.4 272.9 692.3 248.6ZM211.8 433.5C204.4 444.7 193 452.4 179.9 455.1C166.7 457.8 153.3 455.2 142.1 447.8C130.9 440.4 123.2 429 120.5 415.9L101.8 324.2C99.1 311 101.7 297.6 109.1 286.4C116.5 275.2 127.9 267.5 141 264.8C144.4 264.1 147.7 263.8 151.1 263.8C174.5 263.8 195.6 280.3 200.4 304.1L219.1 395.8C221.8 408.9 219.2 422.3 211.8 433.5Z" fill="#FF4081"/>
<path d="M703.2 245.1C698.1 220.8 674.2 205.2 649.9 210.3L299.9 284L299.6 282.5C284.2 206.7 209.9 157.5 134.1 173C97.4 180.5 65.7 201.8 45.1 233.1C24.4 264.4 17.1 301.8 24.6 338.6L43.3 430.3C50.8 467 72.1 498.7 103.4 519.3C126.6 534.7 153.3 542.6 180.6 542.6C190 542.6 199.5 541.7 208.9 539.7C245.6 532.2 277.3 510.9 297.9 479.6C318.6 448.3 325.9 410.9 318.4 374.1L318 372L570 318.9L577.1 353.7C581.4 375 600.2 389.7 621.1 389.7C624.1 389.7 627.1 389.4 630.1 388.8C654.5 383.8 670.2 360.1 665.2 335.7L658 300.3L668.6 298.1C692.8 293.3 708.3 269.5 703.2 245.1ZM222.7 430.1C215.3 441.3 203.9 449 190.8 451.7C177.6 454.4 164.2 451.8 153 444.4C141.8 437 134.1 425.6 131.4 412.5L112.7 320.8C110 307.6 112.6 294.2 120 283C127.4 271.8 138.8 264.1 151.9 261.4C155.3 260.7 158.6 260.4 162 260.4C185.4 260.4 206.5 276.9 211.3 300.7L230 392.4C232.7 405.5 230.1 418.9 222.7 430.1Z" fill="#FF7AA8"/>
<path d="M299.5 282.6L334.7 277.8L318.7 373.6L299.5 282.6Z" fill="#2B2B2B"/>
<path d="M520.9 115.8L523.3 124.4C523.8 126.1 522.7 127.9 521 128.3L516.7 128.8" fill="#FDC068"/>
<path d="M516.7 130.1C516 130.1 515.5 129.6 515.4 128.9C515.3 128.2 515.8 127.5 516.5 127.5L520.7 127C521.2 126.9 521.6 126.6 521.8 126.1C522.1 125.7 522.1 125.2 522 124.7L519.6 116.1C519.4 115.4 519.8 114.7 520.5 114.5C521.2 114.3 521.9 114.7 522.1 115.4L524.5 124C524.8 125.1 524.7 126.4 524.1 127.4C523.5 128.5 522.5 129.2 521.3 129.5H521.2L516.9 130C516.8 130.1 516.7 130.1 516.7 130.1Z" fill="#2B2B2B"/>
<path d="M475.8 151.1L451.3 139.9C438.6 134.1 433 119.1 438.9 106.4L455.8 69.4C465.1 49.1 489.1 40.2 509.4 49.5C529.7 58.8 538.6 82.8 529.3 103.1L513.8 137C507.2 151.3 490.2 157.7 475.8 151.1Z" fill="#FDC068"/>
<path d="M526.3 109.6L522.6 117.8C521.5 117 520.7 115.6 520.7 114.1C520.7 111.6 522.8 109.5 525.3 109.5C525.7 109.5 526 109.5 526.3 109.6Z" fill="#2B2B2B"/>
<path d="M423.1 170L416.3 163.2C413.3 160.2 412.5 155.5 414.5 151.7L446.5 89.7L485.6 107.6L464.3 161.3C457.6 178.2 435.9 182.7 423.1 170Z" fill="#FDC068"/>
<path d="M469.5 148.2L456.7 142.3L464.5 160.9L469.5 148.2Z" fill="#2B2B2B"/>
<path d="M475.5 293C484.4 255.1 458 250.6 474 227.6C490 204.5 486.9 166 457.8 159.2C435.3 153.9 434 152.6 424.5 150.4C394.6 143.3 366.8 168.9 368.6 199.6C368.6 199.6 369.4 206.6 367.1 215.1C364.8 223.6 340.8 231.3 334.7 257.4L475.5 293Z" fill="url(#paint2_linear)"/>
<path d="M440.4 294.2L440.2 298L439.9 301.7L439.3 309.2L437.8 324.1C437.3 329.1 436.7 334 436.1 339L434.2 353.8C431.5 373.5 428.3 393.2 424.8 412.8C421.3 432.4 417.4 451.9 413.3 471.4C409.1 490.9 404.7 510.3 399.9 529.7L398 537.5C396.6 543.1 393.9 548.3 390.4 552.4C376.5 568.8 362.5 585 348.3 601.1L337.6 613.1L326.7 625C319.5 633 312.1 640.8 304.8 648.7C290 664.4 275.1 680 259.7 695.2C244.2 710.4 225.7 731.4 209.2 745.8L174 671.4L301.8 488.5L292.2 511.5L334.8 259.4L440.4 294.2Z" fill="url(#paint3_linear)"/>
<path d="M216.2 805L159.4 700C156.4 694.5 158.4 687.6 163.8 684.5L174 671.4L212.2 743.8L227 800.8C228.6 807.5 219.4 811.1 216.2 805Z" fill="#2B2B2B"/>
<path d="M605 761.7H525.4L453.7 562.1L448.5 546.9L445.9 539.3L443 531.8L440.9 526.3L431.6 501.9L408.7 442L363 322.2L415.1 302.3L465.8 283C475.7 302.3 484.3 322.1 492.6 342C500.8 361.9 508.5 382 515.9 402.3C519.5 412.5 523.2 422.6 526.6 432.8C528.3 437.9 530.1 443 531.8 448.1L536.8 463.5C538.5 468.6 540.1 473.8 541.7 478.9L546.5 494.3L548.8 502.1L550.9 509.9L555 525.6C565.8 567.4 575.9 609.6 584.8 652C589.3 673.2 593.6 694.5 597.4 715.9C599.3 726.6 601.3 737.3 602.9 748.1C603.6 752.6 604.3 757.1 605 761.7Z" fill="url(#paint4_linear)"/>
<path d="M593.9 384.1L612.3 398.8C624.3 408.4 626.2 425.9 616.7 437.9C608 448.8 592.8 451.4 581.1 444.6L566.4 436.1" fill="#FDC068"/>
<path d="M334.7 257.4C330 277.4 343.9 312.3 378.7 320.8L407 326.8C438.7 334.6 471 312.3 476.1 290.7L334.7 257.4Z" fill="url(#paint5_linear)"/>
<path d="M417.1 276.8C417.1 276.8 415.7 377.7 436.6 394C457.5 410.3 527.5 436.2 527.5 436.2L477.8 308.7L445.8 279.6L417.1 276.8Z" fill="#2B2B2B"/>
<path d="M566.4 436.2L457.6 373.4C449.1 368.5 443.6 360.3 441.9 351.3L441.4 348.5L417.8 219.9C414 199 427.8 178.9 448.7 175.1C469.6 171.3 489.7 185.1 493.5 206L517.1 334.6L500.9 309.8L593.9 384.2" fill="url(#paint6_linear)"/>
<path d="M532.9 88.6L526.9 89.1C517.7 89.9 510.1 96.6 508.2 105.7L504.5 122.8L490.6 120.7L463.4 135.1C457.1 138.4 449.7 138.9 443.1 136.5L425.6 130.1L456.6 66.3C466.1 46.8 489.3 38.2 509.2 46.9L518.8 51.1C533.3 57.5 539.6 74.4 532.9 88.6Z" fill="#DA004A"/>
<path d="M507.4 82.7L535.5 91C542.7 93.1 550.3 89.9 553.9 83.3L557.1 77.3C561.6 69 557.9 58.7 549.2 55.1C545.9 53.7 542.3 53.5 538.8 54.5L527.9 57.6L507.4 82.7Z" fill="#DA004A"/>
<path d="M492.6 125.9C489.8 125.2 488 122.3 488.7 119.5L492.5 104.1C493.2 101.3 496.1 99.5 498.9 100.2C501.7 100.9 503.5 103.8 502.8 106.6L499 122C498.4 124.8 495.5 126.6 492.6 125.9Z" fill="#FDC068"/>
<path d="M428.7 280.8C428.1 280.8 427.5 280.4 427.4 279.7L420.1 240.2C420 239.5 420.4 238.8 421.1 238.7C421.8 238.6 422.5 239 422.6 239.7L429.9 279.2C430 279.9 429.6 280.6 428.9 280.7C428.9 280.8 428.8 280.8 428.7 280.8Z" fill="#2B2B2B"/>
<path d="M514.5 322C514.2 322 514 321.9 513.7 321.7L497.4 309.7C496.8 309.3 496.7 308.5 497.1 307.9C497.5 307.3 498.3 307.2 498.9 307.6L515.2 319.6C515.8 320 515.9 320.8 515.5 321.4C515.3 321.8 514.9 322 514.5 322Z" fill="#2B2B2B"/>
<path d="M334.7 258.7C334.5 258.7 334.3 258.7 334.2 258.6C333.5 258.3 333.2 257.5 333.5 256.9L351 217C351.3 216.3 352.1 216 352.7 216.3C353.4 216.6 353.7 217.4 353.4 218L335.9 257.9C335.7 258.4 335.2 258.7 334.7 258.7Z" fill="#2B2B2B"/>
<path d="M408.9 149.5L421.4 133.5L464.3 161.4L408.9 149.5Z" fill="white"/>
<path d="M415.6 461.7C415.1 461.7 414.6 461.4 414.4 460.9L374.7 357C374.4 356.3 374.8 355.6 375.5 355.3C376.2 355 376.9 355.4 377.2 356.1L416.9 460C417.2 460.7 416.8 461.4 416.1 461.7C415.9 461.7 415.8 461.7 415.6 461.7Z" fill="#2B2B2B"/>
<path d="M294.2 523.7C293.5 523.7 292.9 523.1 292.9 522.4V499.3C292.9 498.6 293.5 498 294.2 498C294.9 498 295.5 498.6 295.5 499.3V522.4C295.5 523.1 294.9 523.7 294.2 523.7Z" fill="#2B2B2B"/>
<path d="M569.8 320.5C569.2 320.5 568.6 320.1 568.5 319.4C568.4 318.7 568.8 318 569.5 317.9L589.5 314.2C590.2 314.1 590.9 314.5 591 315.2C591.1 315.9 590.7 316.6 590 316.7L570 320.4C570 320.5 569.9 320.5 569.8 320.5Z" fill="#2B2B2B"/>
<path opacity="0.4" d="M525.3 761.8L505.5 706.7H594.5L604.8 761.8H525.3Z" fill="#2B2B2B"/>
<path d="M693.1 811.1C779.9 811.1 810.9 699.2 856.8 711.9C883.5 719.3 901.1 700.1 917.7 682.8C931.2 668.8 954.9 678.3 954.9 697.7V811L693.1 811.1Z" fill="url(#paint7_linear)"/>
<path d="M842 345.2L832 344C836.9 303.8 868.8 284.7 896.9 267.8C923.4 251.9 946.3 238.1 946.3 210.6H956.3C956.3 243.8 928.7 260.4 902.1 276.4C874.6 292.8 846.3 309.9 842 345.2Z" fill="#FFD2E2"/>
<path d="M357.2 108.2H347.2C347.2 85.7 318.8 79.5 288.8 72.9C258.9 66.4 228 59.6 228 33.5H238C238 50.3 259 56.2 291 63.2C322 69.9 357.2 77.6 357.2 108.2Z" fill="#FFD2E2"/>
<defs>
<linearGradient id="paint0_linear" x1="247.65" y1="583.633" x2="247.65" y2="802.008" gradientUnits="userSpaceOnUse">
<stop stop-color="#B096FF"/>
<stop offset="0.9958" stop-color="white"/>
</linearGradient>
<linearGradient id="paint1_linear" x1="322.049" y1="364.348" x2="322.049" y2="163.845" gradientUnits="userSpaceOnUse">
<stop stop-color="#FFE0C2"/>
<stop offset="0.401" stop-color="#8B6EE1"/>
<stop offset="0.5908" stop-color="#B096FF"/>
<stop offset="1" stop-color="#D2D4D4"/>
</linearGradient>
<linearGradient id="paint2_linear" x1="409.148" y1="398" x2="409.148" y2="165.69" gradientUnits="userSpaceOnUse">
<stop stop-color="#FFE0C2"/>
<stop offset="0.401" stop-color="#B096FF"/>
<stop offset="0.5908" stop-color="#9074E5"/>
<stop offset="1" stop-color="#D2D4D4"/>
</linearGradient>
<linearGradient id="paint3_linear" x1="307.2" y1="259.4" x2="307.2" y2="798.086" gradientUnits="userSpaceOnUse">
<stop stop-color="#4527A0"/>
<stop offset="0.401" stop-color="#6C4EC8"/>
<stop offset="1" stop-color="#B096FF"/>
</linearGradient>
<linearGradient id="paint4_linear" x1="484" y1="276.483" x2="484" y2="748.088" gradientUnits="userSpaceOnUse">
<stop stop-color="#4527A0"/>
<stop offset="0.105476" stop-color="#5133AC"/>
<stop offset="1" stop-color="#FF7AA8"/>
</linearGradient>
<linearGradient id="paint5_linear" x1="404.957" y1="276" x2="404.957" y2="790.062" gradientUnits="userSpaceOnUse">
<stop stop-color="#4527A0"/>
<stop offset="0.0950484" stop-color="#5133AC"/>
<stop offset="1" stop-color="#6C4EC8"/>
</linearGradient>
<linearGradient id="paint6_linear" x1="505.535" y1="388.063" x2="505.535" y2="166.079" gradientUnits="userSpaceOnUse">
<stop stop-color="#FFE0C2"/>
<stop offset="0.401" stop-color="#8B6FE1"/>
<stop offset="0.5908" stop-color="#785BD2"/>
<stop offset="1" stop-color="#D2D4D4"/>
</linearGradient>
<linearGradient id="paint7_linear" x1="824" y1="700.283" x2="824" y2="806.65" gradientUnits="userSpaceOnUse">
<stop stop-color="#C9B7FF"/>
<stop offset="0.9958" stop-color="white"/>
</linearGradient>
</defs>
</svg>
